<svg width="28" height="27" viewBox="0 0 28 27" fill="none" xmlns="http://www.w3.org/2000/svg">
<path d="M22.05 22.8375L15.5167 16.5375C14.9333 16.9875 14.2625 17.3438 13.5042 17.6062C12.7458 17.8687 11.9389 18 11.0833 18C8.96389 18 7.17033 17.2924 5.70267 15.8771C4.23422 14.4611 3.5 12.7312 3.5 10.6875C3.5 8.64375 4.23422 6.91388 5.70267 5.49788C7.17033 4.08263 8.96389 3.375 11.0833 3.375C13.2028 3.375 14.9967 4.08263 16.4652 5.49788C17.9328 6.91388 18.6667 8.64375 18.6667 10.6875C18.6667 11.5125 18.5306 12.2906 18.2583 13.0219C17.9861 13.7531 17.6167 14.4 17.15 14.9625L23.7125 21.2906C23.9264 21.4969 24.0333 21.75 24.0333 22.05C24.0333 22.35 23.9167 22.6125 23.6833 22.8375C23.4694 23.0437 23.1972 23.1469 22.8667 23.1469C22.5361 23.1469 22.2639 23.0437 22.05 22.8375ZM11.0833 15.75C12.5417 15.75 13.7814 15.258 14.8027 14.274C15.8231 13.2892 16.3333 12.0938 16.3333 10.6875C16.3333 9.28125 15.8231 8.08575 14.8027 7.101C13.7814 6.117 12.5417 5.625 11.0833 5.625C9.625 5.625 8.38522 6.117 7.364 7.101C6.34356 8.08575 5.83333 9.28125 5.83333 10.6875C5.83333 12.0938 6.34356 13.2892 7.364 14.274C8.38522 15.258 9.625 15.75 11.0833 15.75Z" fill="#E084FF"/>
</svg>

